# xmcd CD database file
#
# Track frame offsets:
#	150
#	17875
#	38318
#	56275
#	74161
#	103179
#	117687
#	136353
#	155877
#	174480
#
# Disc length: 2572 seconds
#
# Revision: 0
# Processed by: cddbd v1.5PL3 Copyright (c) Steve Scherf et al.
# Submitted via: freeDB plugin v1.0
#
DISCID=8f0a0a0a
DTITLE=Boz Scaggs - Down Two Then Left
DYEAR=1900
DGENRE=Rock
TTITLE0=Still Falling for You
TTITLE1=Hard Times
TTITLE2=A Clue
TTITLE3=Whatcha Gonna Tell Your Man
TTITLE4=We're Waiting
TTITLE5=Hollywood
TTITLE6=Then She Walked Away
TTITLE7=Gimme the Goods
TTITLE8=1993
TTITLE9=Tomorrow Never Came/Tomorrow Never Came (Reprise)
EXTD=
EXTT0=
EXTT1=
EXTT2=
EXTT3=
EXTT4=
EXTT5=
EXTT6=
EXTT7=
EXTT8=
EXTT9=
PLAYORDER=
